<svg xmlns="http://www.w3.org/2000/svg" width="224" height="300" style="shape-rendering:geometricPrecision;text-rendering:geometricPrecision;image-rendering:optimizeQuality;fill-rule:evenodd;clip-rule:evenodd"><path style="opacity:.006" fill="#081013" d="M32.5-.5h2v1c0 .667-.333 1-1 1l-1-2z"/><path style="opacity:.998" fill="#215b7e" d="M35.5-.5h52c0 .667.333 1 1 1 0 .667.333 1 1 1 2.731 1.571 4.565 3.905 5.5 7 .5 64.332.667 128.666.5 193 1.052 1.756 2.719 2.423 5 2h25a6725.956 6725.956 0 0 0 1-164c.934-1.068 1.268-2.401 1-4a373.063 373.063 0 0 1 32-33c1-.333 1.667-1 2-2 .667 0 1-.333 1-1h52c.333 1.333.667 1.333 1 0h2v1c-1.333.333-1.333.667 0 1 .333 1 1 1.667 2 2a10.176 10.176 0 0 0 3 3c-.237 1.291.096 2.291 1 3v197c-.968 2.107-1.302 4.441-1 7-.934 1.068-1.268 2.401-1 4-.934 1.068-1.268 2.401-1 4-.904.709-1.237 1.709-1 3-.904.709-1.237 1.709-1 3-.838.342-1.172 1.008-1 2-.838.342-1.172 1.008-1 2-.838.342-1.172 1.008-1 2-.838.342-1.172 1.008-1 2-.838.342-1.172 1.008-1 2-.838.342-1.172 1.008-1 2-.667 0-1 .333-1 1-.838.342-1.172 1.008-1 2-.667 0-1 .333-1 1-.667 0-1 .333-1 1-.667 0-1 .333-1 1-.838.342-1.172 1.008-1 2-.667 0-1 .333-1 1-.667 0-1 .333-1 1-.667 0-1 .333-1 1-.667 0-1 .333-1 1h-1c-1 .333-1.667 1-2 2-.667 0-1 .333-1 1-.667 0-1 .333-1 1-.667 0-1 .333-1 1-.667 0-1 .333-1 1-.667 0-1 .333-1 1-.667 0-1 .333-1 1-.667 0-1 .333-1 1-.667 0-1 .333-1 1-.667 0-1 .333-1 1-.667 0-1 .333-1 1-.667 0-1 .333-1 1-.667 0-1 .333-1 1-.667 0-1 .333-1 1-.667 0-1 .333-1 1-.667 0-1 .333-1 1-.667 0-1 .333-1 1-.667 0-1 .333-1 1-.667 0-1 .333-1 1-.667 0-1 .333-1 1-.667 0-1 .333-1 1-.667 0-1 .333-1 1-.667 0-1 .333-1 1-.667 0-1 .333-1 1-.667 0-1 .333-1 1-.667 0-1 .333-1 1-.667 0-1 .333-1 1-.667 0-1 .333-1 1-.667 0-1 .333-1 1h-1c-.667 0-1 .333-1 1-.667 0-1 .333-1 1-.667 0-1 .333-1 1h-1c-.667 0-1 .333-1 1-.667 0-1 .333-1 1h-1c-.667 0-1 .333-1 1-1.333.333-1.333.667 0 1-.342.838-1.008 1.172-2 1 0-.667-.333-1-1-1s-1 .333-1 1h-1c-.667 0-1 .333-1 1-.667 0-1 .333-1 1-.992-.172-1.658.162-2 1-1.291-.237-2.291.096-3 1-.992-.172-1.658.162-2 1-1.291-.237-2.291.096-3 1-1.291-.237-2.291.096-3 1-1.599-.268-2.932.066-4 1h-5a1257.39 1257.39 0 0 1-64 1h-7c-1.419-.951-3.085-1.284-5-1-1.068-.934-2.401-1.268-4-1-.709-.904-1.709-1.237-3-1-.709-.904-1.709-1.237-3-1-.709-.904-1.709-1.237-3-1-2.349-1.841-5.015-3.174-8-4 0-.667-.333-1-1-1 0-.667-.333-1-1-1h-1c0-.667-.333-1-1-1h-1c0-.667-.333-1-1-1 0-.667-.333-1-1-1l-2-1c0-.667-.333-1-1-1l-3-2c0-.667-.333-1-1-1 0-.667-.333-1-1-1 0-.667-.333-1-1-1-11.794-11.589-18.794-25.589-21-42v-199a915.535 915.535 0 0 0 4-6c.667 0 1-.333 1-1 .667 0 1-.333 1-1 7.667-7 15-14.333 22-22 .667 0 1-.333 1-1 .667 0 1-.333 1-1 .667 0 1-.333 1-1 .667 0 1-.333 1-1l2-1c.667 0 1-.333 1-1 .667 0 1-.333 1-1zm175 12c.667 0 1 .333 1 1a9905.61 9905.61 0 0 1-1 199 50.464 50.464 0 0 0-.5-10 82.317 82.317 0 0 1-2.5 16.5c.07.765.403 1.265 1 1.5.237 1.291-.096 2.291-1 3a2.428 2.428 0 0 0-.5-2c-3.332 8.674-8.165 16.341-14.5 23-1.904.238-3.238 1.238-4 3-.667 0-1 .333-1 1-1.527-.073-2.527.594-3 2-.992-.172-1.658.162-2 1-3.415.695-6.082 2.362-8 5h-1c-.79.901-1.79 1.568-3 2 .131-.876-.202-1.543-1-2-.017.894-.351 1.894-1 3-1.792-.134-3.458.199-5 1-.343-1.725-1.343-2.225-3-1.5.916.278 1.582.778 2 1.5a262.255 262.255 0 0 1-37.5 2 262.254 262.254 0 0 1-37.5-2c.418-.722 1.084-1.222 2-1.5-1.657-.725-2.657-.225-3 1.5-1.495-.489-2.829-1.155-4-2h-3v-1a30.968 30.968 0 0 1-2-2c-.607.124-.94.457-1 1-2.508-2.424-5.508-4.09-9-5-.342-.838-1.008-1.172-2-1 0-.667-.333-1-1-1-.473-1.406-1.473-2.073-3-2 0-.667-.333-1-1-1-.473-1.406-1.473-2.073-3-2-8.84-9.014-14.506-19.681-17-32v-198h42c-.332 64.502 0 128.835 1 193-.227 2.433.773 4.099 3 5 .63 2.497 2.296 3.83 5 4 .763.768 1.763 1.268 3 1.5a960.77 960.77 0 0 0 62 0c1.237-.232 2.237-.732 3-1.5 1.527.073 2.527-.594 3-2 2.544-1.208 3.878-3.208 4-6a9413.8 9413.8 0 0 0 1-194c14.706.65 29.039-.017 43-2zm-187 25a118.47 118.47 0 0 1-1 16c-.662-1.803-.995-3.803-1-6-.102-3.617.565-6.95 2-10zm2 1c1.136 5.181 1.136 10.515 0 16-.56-5.149-.56-10.482 0-16zm113 12c1.333 35 1.333 70 0 105-.722-.418-1.222-1.084-1.5-2a2549.226 2549.226 0 0 1 0-101c.278-.916.778-1.583 1.5-2zm-114 13a2542.188 2542.188 0 0 1 1 152c-.267-50.667-.6-101.334-1-152zm-2 1c-.363 31.586.303 63.086 2 94.5a805.889 805.889 0 0 0-1 56.5 2365.517 2365.517 0 0 1-1-151zm115 103c1.742 2.645 2.409 5.645 2 9h-3c-.31-3.213.023-6.213 1-9z"/><path style="opacity:.006" fill="#03090e" d="M88.5-.5h2l-1 2c-.667 0-1-.333-1-1v-1z"/><path style="opacity:.004" fill="#050b11" d="M159.5-.5h2v1c-.333 1-1 1.667-2 2-1.333-1-1.333-2 0-3z"/><path style="opacity:.005" fill="#040b10" d="M217.5.5c2.507.132 3.174 1.132 2 3-1-.333-1.667-1-2-2v-1z"/><path style="opacity:.005" fill="#000001" d="M31.5 2.5c-.667 0-1 .333-1 1s-.333 1-1 1-1 .333-1 1c-.667 0-1 .333-1 1-.618-2.164.382-3.83 3-5 .607.124.94.457 1 1z"/><path style="opacity:.012" d="M223.5 5.5v1c-.67-.481-.67-.815 0-1z"/><path style="opacity:.012" fill="#000102" d="M100.5 203.5c-2.281.423-3.948-.244-5-2 .833-64.165 1.333-128.499 1.5-193 .5 64 .667 127.999.5 192 3.098-.087 3.432.413 1 1.5.916.278 1.582.778 2 1.5z"/><path style="opacity:.008" fill="#000001" d="M39.5 11.5h1a210.63 210.63 0 0 0 41 0h1c0 .667.333 1 1 1v194c-1-64.165-1.332-128.498-1-193h-42v198h-1v-200z"/><path style="opacity:.01" fill="#000101" d="M167.5 11.5h1a210.63 210.63 0 0 0 41 0h1c-13.961 1.983-28.294 2.65-43 2a9413.8 9413.8 0 0 1-1 194v-195c.667 0 1-.333 1-1z"/><path style="opacity:.832" fill="#1b3b50" d="M211.5 12.5c.617.11 1.117.444 1.5 1 .62 67.72.62 135.387 0 203l-1-4c-.21 1.558-.71 2.891-1.5 4v-5a9905.61 9905.61 0 0 0 1-199z"/><path style="opacity:.006" d="M5.5 28.5c-.667 0-1 .333-1 1-.667 0-1 .333-1 1-1.025-.397-1.192-1.063-.5-2 .977-1.274 1.81-1.274 2.5 0z"/><path style="opacity:.004" d="M127.5 35.5c-.934 1.068-1.268 2.401-1 4a6725.968 6725.968 0 0 0-1 164h-1a260.63 260.63 0 0 0-23-1.5c7.659-.5 15.326-.666 23-.5-.167-54.334 0-108.668.5-163 .216-1.884.883-3.55 2-5 .464.594.631 1.261.5 2z"/><path style="opacity:.007" fill="#010303" d="M23.5 36.5h1c0 .667.333 1 1 1-.56 5.518-.56 10.851 0 16-1 1.333-2 1.333-3 0 1.333-.333 1.333-.667 0-1a118.47 118.47 0 0 0 1-16z"/><path style="opacity:.013" fill="#020507" d="M149.5 36.5c.06-.543.393-.876 1-1a45.636 45.636 0 0 1 0 19 73.134 73.134 0 0 1-1-17c1.333-.333 1.333-.667 0-1z"/><path style="opacity:.014" fill="#010203" d="M12.5 49.5c.992-.172 1.658.162 2 1a2775.694 2775.694 0 0 0 0 149c-.709.904-1.709 1.237-3 1v-150c.667 0 1-.333 1-1z"/><path style="opacity:.016" d="M138.5 49.5h1c0 .667.333 1 1 1v103c-.667 0-1 .333-1 1h-1c1.333-35 1.333-70 0-105z"/><path style="opacity:.008" fill="#000101" d="M24.5 62.5c.4 50.666.733 101.333 1 152 0 .667-.333 1-1 1 0-.667-.333-1-1-1a805.889 805.889 0 0 1 1-56.5 1444.043 1444.043 0 0 1-2-94.5c.722-.417 1.222-1.084 1.5-2 .399.228.565.562.5 1z"/><path style="opacity:.011" fill="#000102" d="M151.5 62.5c-1.333.333-1.333.667 0 1 .333 41.672 0 83.339-1 125-.607-.124-.94-.457-1-1 1.333-.333 1.333-.667 0-1-.333-41.672 0-83.339 1-125 .607.124.94.457 1 1z"/><path style="opacity:.015" fill="#010507" d="M137.5 165.5c.342-.838 1.008-1.172 2-1 0 .667.333 1 1 1v11c-.667 0-1 .333-1 1h-1l-2-2h3c.409-3.355-.258-6.355-2-9 1.333-.333 1.333-.667 0-1z"/><path style="opacity:.014" fill="#020305" d="M14.5 210.5c-.987 4.805-1.32 9.805-1 15h-1c0-.667-.333-1-1-1v-15c1.291-.237 2.291.096 3 1z"/><path style="opacity:.012" fill="#000101" d="M86.5 211.5h1c0 .667.333 1 1 1 .342.838 1.008 1.172 2 1 0 .667.333 1 1 1v1c-2.704-.17-4.37-1.503-5-4z"/><path style="opacity:.015" fill="#000101" d="M160.5 213.5h2c-.473 1.406-1.473 2.073-3 2v-1c.667 0 1-.333 1-1z"/><path style="opacity:.01" fill="#000001" d="M222.5 213.5h1v4h-1v-4z"/><path style="opacity:.018" fill="#010406" d="M94.5 214.5c1.915-.284 3.581.049 5 1a351.713 351.713 0 0 0 53 0c1.068-.934 2.401-1.268 4-1 .709.904 1.709 1.237 3 1-.763.768-1.763 1.268-3 1.5a960.77 960.77 0 0 1-62 0c-1.237-.232-2.237-.732-3-1.5 1.291.237 2.291-.096 3-1z"/><path style="opacity:.008" fill="#000100" d="M221.5 217.5h1c.268 1.599-.066 2.932-1 4v-4z"/><path style="opacity:.009" fill="#000001" d="M220.5 221.5h1c.237 1.291-.096 2.291-1 3v-3z"/><path style="opacity:.009" fill="#000100" d="M219.5 224.5h1c.237 1.291-.096 2.291-1 3v-3z"/><path style="opacity:.012" fill="#000001" d="M218.5 227.5h1c.172.992-.162 1.658-1 2v-2z"/><path style="opacity:.008" fill="#000001" d="M217.5 229.5h1c.172.992-.162 1.658-1 2v-2zM216.5 231.5h1c.172.992-.162 1.658-1 2v-2zM215.5 233.5h1c.172.992-.162 1.658-1 2v-2z"/><path style="opacity:.008" d="M214.5 235.5h1c.172.992-.162 1.658-1 2v-2z"/><path style="opacity:.008" fill="#000001" d="M213.5 237.5h1c.172.992-.162 1.658-1 2v-2z"/><path style="opacity:.012" fill="#000201" d="M212.5 239.5h1c-.185.67-.519.67-1 0z"/><path style="opacity:.006" fill="#000001" d="M211.5 240.5h1c.172.992-.162 1.658-1 2v-2z"/><path style="opacity:.011" fill="#000101" d="M-.5 242.5c1.333 1.333 1.333 2.667 0 4v-4z"/><path style="opacity:.008" fill="#000100" d="M210.5 242.5h1c-.185.67-.519.67-1 0z"/><path style="opacity:.01" fill="#040010" d="M57.5 244.5v-1c1.527-.073 2.527.594 3 2-.667 0-1 .333-1 1l-2-2z"/><path style="opacity:.008" fill="#02050a" d="M192.5 243.5v1c-.667 0-1 .333-1 1l-2 2c0-.667-.333-1-1-1 .762-1.762 2.096-2.762 4-3z"/><path style="opacity:.012" fill="#000100" d="M209.5 243.5h1c-.185.67-.519.67-1 0z"/><path style="opacity:.008" d="M208.5 244.5h1c-.185.67-.519.67-1 0z"/><path style="opacity:.006" fill="#000100" d="M207.5 245.5h1c.172.992-.162 1.658-1 2v-2z"/><path style="opacity:.009" fill="#000001" d="M61.5 247.5v-1c1.527-.073 2.527.594 3 2h-2c0-.667-.333-1-1-1z"/><path style="opacity:.009" d="M187.5 247.5v1c-.667 0-1 .333-1 1h-2c.473-1.406 1.473-2.073 3-2z"/><path style="opacity:.004" fill="#000100" d="M206.5 247.5h1c-.185.67-.519.67-1 0z"/><path style="opacity:.008" fill="#000201" d="M205.5 248.5h1c-.185.67-.519.67-1 0z"/><path style="opacity:.01" fill="#03080d" d="M65.5 249.5c.992-.172 1.658.162 2 1-.667 0-1 .333-1 1-.838-.342-1.172-1.008-1-2z"/><path style="opacity:.01" fill="#010405" d="M182.5 250.5c.342-.838 1.008-1.172 2-1 .172.992-.162 1.658-1 2 0-.667-.333-1-1-1z"/><path style="opacity:.008" fill="#000201" d="M204.5 249.5h1c-.185.67-.519.67-1 0z"/><path style="opacity:.007" fill="#020608" d="M67.5 251.5v-1c3.492.91 6.492 2.576 9 5v1l-4-2c-.342-.838-1.008-1.172-2-1-.342-.838-1.008-1.172-2-1 0-.667-.333-1-1-1z"/><path style="opacity:.008" fill="#020608" d="M182.5 250.5v1l-2 2c.065-.438-.101-.772-.5-1-.278.916-.778 1.582-1.5 2-.333-1.333-.667-1.333-1 0-.992-.172-1.658.162-2 1h-1c1.918-2.638 4.585-4.305 8-5z"/><path style="opacity:.008" fill="#000201" d="M203.5 250.5h1c-.185.67-.519.67-1 0z"/><path style="opacity:.004" fill="#000102" d="M202.5 251.5h1c-.185.67-.519.67-1 0z"/><path style="opacity:.005" fill="#050812" d="M201.5 251.5c0 .667.333 1 1 1-.473 1.406-1.473 2.073-3 2v-1c.333-1 1-1.667 2-2z"/><path style="opacity:.012" d="M198.5 254.5h1c-.185.67-.519.67-1 0z"/><path style="opacity:.016" fill="#000102" d="M197.5 255.5h1c-.185.67-.519.67-1 0z"/><path style="opacity:.004" fill="#060e12" d="M76.5 255.5c.06-.543.393-.876 1-1a30.968 30.968 0 0 0 2 2v1c-1.278-.282-2.278-.949-3-2z"/><path style="opacity:.012" fill="#010202" d="M196.5 256.5h1c-.185.67-.519.67-1 0z"/><path style="opacity:.008" d="M87.5 259.5h-1c.343-1.725 1.343-2.225 3-1.5-.916.278-1.582.778-2 1.5z"/><path style="opacity:.008" fill="#000001" d="M163.5 259.5h-1c-.418-.722-1.084-1.222-2-1.5 1.657-.725 2.657-.225 3 1.5z"/><path style="opacity:.431" fill="#132936" d="M170.5 257.5c-.342.838-1.008 1.172-2 1 .649-1.106.983-2.106 1-3 .798.457 1.131 1.124 1 2z"/><path style="opacity:.012" fill="#000102" d="M195.5 257.5h1c-.185.67-.519.67-1 0zM194.5 258.5h1c-.185.67-.519.67-1 0zM193.5 259.5h1c-.185.67-.519.67-1 0zM192.5 260.5h1c-.185.67-.519.67-1 0zM191.5 261.5h1c-.185.67-.519.67-1 0zM190.5 262.5h1c-.185.67-.519.67-1 0zM189.5 263.5h1c-.185.67-.519.67-1 0zM188.5 264.5h1c-.185.67-.519.67-1 0zM187.5 265.5h1c-.185.67-.519.67-1 0z"/><path style="opacity:.016" fill="#000102" d="M186.5 266.5h1c-.185.67-.519.67-1 0zM185.5 267.5h1c-.185.67-.519.67-1 0z"/><path style="opacity:.012" fill="#000102" d="M184.5 268.5h1c-.185.67-.519.67-1 0zM183.5 269.5h1c-.185.67-.519.67-1 0zM182.5 270.5h1c-.185.67-.519.67-1 0zM181.5 271.5h1c-.185.67-.519.67-1 0zM180.5 272.5h1c-.185.67-.519.67-1 0zM179.5 273.5h1c-.185.67-.519.67-1 0zM178.5 274.5h1c-.185.67-.519.67-1 0zM177.5 275.5h1c-.185.67-.519.67-1 0zM176.5 276.5h1c-.185.67-.519.67-1 0zM175.5 277.5h1c-.185.67-.519.67-1 0z"/><path style="opacity:.005" fill="#03070a" d="M20.5 277.5c.667 0 1 .333 1 1 .667 0 1 .333 1 1 .667 0 1 .333 1 1-1.57 1.059-2.903.559-4-1.5.556-.383.89-.883 1-1.5z"/><path style="opacity:.012" fill="#000102" d="M174.5 278.5h1c-.185.67-.519.67-1 0zM173.5 279.5h1c-.185.67-.519.67-1 0z"/><path style="opacity:.008" fill="#000102" d="M172.5 280.5h1c-.185.67-.519.67-1 0z"/><path style="opacity:.008" fill="#000100" d="M171.5 281.5h1c-.185.67-.519.67-1 0z"/><path style="opacity:.006" fill="#010306" d="M170.5 281.5c0 .667.333 1 1 1-.342.838-1.008 1.172-2 1v-1c0-.667.333-1 1-1z"/><path style="opacity:.006" fill="#030910" d="M26.5 282.5c.667 0 1 .333 1 1-1.846 1.242-2.18.909-1-1z"/><path style="opacity:.012" fill="#000102" d="M168.5 283.5h1c-.185.67-.519.67-1 0z"/><path style="opacity:.008" fill="#000100" d="M167.5 284.5h1c-.185.67-.519.67-1 0z"/><path style="opacity:.006" fill="#060b0e" d="M29.5 284.5c.667 0 1 .333 1 1 .667 0 1 .333 1 1v1c-2.507-.132-3.174-1.132-2-3z"/><path style="opacity:.006" fill="#010408" d="M166.5 284.5c0 .667.333 1 1 1-.342.838-1.008 1.172-2 1v-1c0-.667.333-1 1-1z"/><path style="opacity:.008" fill="#000100" d="M164.5 286.5h1c-.185.67-.519.67-1 0z"/><path style="opacity:.008" fill="#040c10" d="M32.5 286.5c.667 0 1 .333 1 1v1c-.992.172-1.658-.162-2-1 .667 0 1-.333 1-1z"/><path style="opacity:.006" fill="#01050a" d="M163.5 286.5c0 .667.333 1 1 1-.342.838-1.008 1.172-2 1v-1c0-.667.333-1 1-1z"/><path style="opacity:.005" fill="#050b0e" d="M34.5 287.5c.667 0 1 .333 1 1 .667 0 1 .333 1 1-1.279 1.215-2.279.882-3-1 .667 0 1-.333 1-1z"/><path style="opacity:.006" fill="#050c10" d="M159.5 288.5c.667 0 1 .333 1 1-1.159 1.75-2.826 2.75-5 3v-1c.667 0 1-.333 1-1s.333-1 1-1c.333 1.333.667 1.333 1 0 0-.667.333-1 1-1z"/><path style="opacity:.006" fill="#000101" d="M153.5 292.5h2c-.667 1.333-1.333 1.333-2 0z"/><path style="opacity:.008" fill="#000101" d="M44.5 293.5c-.397 1.025-1.063 1.192-2 .5a2.429 2.429 0 0 1 2-.5z"/><path style="opacity:.008" fill="#000100" d="M150.5 294.5v-1c2.667.333 2.667.667 0 1z"/><path style="opacity:.008" fill="#000001" d="M47.5 294.5c-.397 1.025-1.063 1.192-2 .5a2.429 2.429 0 0 1 2-.5z"/><path style="opacity:.01" fill="#000001" d="M148.5 294.5h2c-.667 1.333-1.333 1.333-2 0z"/><path style="opacity:.008" fill="#000100" d="M50.5 295.5c-.397 1.025-1.063 1.192-2 .5a2.429 2.429 0 0 1 2-.5zM145.5 295.5a2.428 2.428 0 0 1 2 .5c-.937.692-1.603.525-2-.5zM53.5 296.5c-.397 1.025-1.063 1.192-2 .5a2.429 2.429 0 0 1 2-.5z"/><path style="opacity:.01" d="M142.5 296.5a2.428 2.428 0 0 1 2 .5c-.937.692-1.603.525-2-.5z"/><path style="opacity:.008" fill="#000100" d="M57.5 297.5c-.75 1.073-1.75 1.24-3 .5a4.934 4.934 0 0 1 3-.5z"/><path style="opacity:.01" fill="#000100" d="M138.5 297.5a2.428 2.428 0 0 1 2 .5c-.937.692-1.603.525-2-.5z"/><path style="opacity:.008" fill="#000101" d="M58.5 299.5c1.068-.934 2.401-1.268 4-1v1h-4z"/><path style="opacity:.456" fill="#122e40" d="M133.5 297.5v1c-2.559-.302-4.893.032-7 1h-57v-1c21.347.21 42.68-.124 64-1z"/><path style="opacity:.009" d="M133.5 299.5v-1c1.291-.237 2.291.096 3 1h-3z"/></svg>